<?xml version="1.0" standalone="no"?>
<!DOCTYPE svg PUBLIC "-//W3C//DTD SVG 20010904//EN"
 "http://www.w3.org/TR/2001/REC-SVG-20010904/DTD/svg10.dtd">
<svg version="1.0" xmlns="http://www.w3.org/2000/svg"
 width="512.000000pt" height="512.000000pt" viewBox="0 0 512.000000 512.000000"
 preserveAspectRatio="xMidYMid meet">

<g transform="translate(0.000000,512.000000) scale(0.100000,-0.100000)"
fill="#212944" stroke="none">
<path d="M2530 4153 c-50 -20 -1898 -1018 -1913 -1032 -10 -10 -21 -36 -24
-58 -4 -32 -1 -44 20 -68 15 -18 164 -107 366 -220 l340 -190 1 -498 c0 -568
-4 -539 82 -580 704 -336 1157 -547 1173 -547 11 0 166 71 345 158 179 87 442
214 584 282 208 101 262 131 277 155 18 28 19 61 19 530 l1 500 182 101 182
101 5 -797 c5 -873 1 -819 65 -846 39 -16 78 -8 107 23 l23 25 5 856 5 856 57
33 c78 45 101 77 95 127 -3 21 -14 47 -24 57 -27 27 -1898 1029 -1930 1034
-15 2 -35 1 -43 -2z m859 -658 c616 -330 817 -443 808 -451 -7 -6 -377 -216
-824 -467 l-812 -456 -813 456 c-447 251 -818 461 -825 467 -9 8 196 123 810
453 452 243 825 441 829 440 4 -1 376 -200 827 -442z m-1352 -1315 c290 -163
508 -280 523 -280 15 0 234 117 524 280 275 154 501 280 503 280 1 0 3 -174 3
-387 l0 -388 -508 -258 -507 -259 -522 261 -523 261 0 385 c0 212 2 385 4 385
2 0 229 -126 503 -280z"/>
</g>
</svg>
