<svg xmlns="http://www.w3.org/2000/svg" width="14" height="11" viewBox="0 0 14 11" fill="">
    <path d="M13 1.68945C12.5781 1.68945 12.25 2.04102 12.25 2.43945C12.25 2.62695 12.3203 2.79102 12.4141 2.9082L9.95312 4.87695C9.8125 4.99414 9.64844 5.04102 9.48438 5.04102C9.22656 5.04102 8.94531 4.87695 8.82812 4.61914L7.32812 1.61914C7.5625 1.50195 7.75 1.24414 7.75 0.939453C7.75 0.541016 7.39844 0.189453 7 0.189453C6.57812 0.189453 6.25 0.541016 6.25 0.939453C6.25 1.24414 6.41406 1.50195 6.64844 1.61914L5.14844 4.61914C5.03125 4.87695 4.75 5.04102 4.49219 5.04102C4.32812 5.04102 4.16406 4.99414 4.02344 4.87695L1.5625 2.9082C1.65625 2.79102 1.75 2.62695 1.75 2.43945C1.75 2.04102 1.39844 1.68945 1 1.68945C0.578125 1.68945 0.25 2.04102 0.25 2.43945C0.25 2.86133 0.578125 3.18945 1 3.18945C1.02344 3.18945 1.07031 3.18945 1.11719 3.16602L2.26562 9.4707C2.38281 10.1738 3.01562 10.6895 3.74219 10.6895H10.2344C10.9609 10.6895 11.5938 10.1738 11.7109 9.4707L12.8594 3.16602C12.9062 3.18945 12.9531 3.18945 13 3.18945C13.3984 3.18945 13.75 2.86133 13.75 2.43945C13.75 2.04102 13.3984 1.68945 13 1.68945ZM10.9844 9.33008C10.9141 9.68164 10.6094 9.93945 10.2344 9.93945H3.74219C3.36719 9.93945 3.0625 9.68164 2.99219 9.33008L2.07812 4.29102L3.55469 5.46289C3.8125 5.67383 4.14062 5.79102 4.49219 5.79102C5.05469 5.79102 5.57031 5.46289 5.82812 4.94727L7 2.62695L8.14844 4.94727C8.40625 5.46289 8.92188 5.79102 9.48438 5.79102C9.83594 5.79102 10.1641 5.67383 10.4219 5.46289L11.8984 4.29102L10.9844 9.33008Z" fill="#ffc107"/>
</svg>